<svg id="Camada_1" data-name="Camada 1" xmlns="http://www.w3.org/2000/svg" viewBox="0 0 50 16.3"><defs><style>.cls-1{fill:#fff;}</style></defs><title>myfont-svg</title><path class="cls-1" d="M103,43.36a.38.38,0,0,1,.09-.25.28.28,0,0,1,.23-.09h5L103,34.34a.29.29,0,0,1-.11-.26.31.31,0,0,1,.09-.22.3.3,0,0,1,.21-.12h5.72a4.71,4.71,0,0,1,1.92.39,5,5,0,0,1,1.58,1.06,5.32,5.32,0,0,1,1.07,1.58,4.9,4.9,0,0,1,0,3.74,5.12,5.12,0,0,1-1,1.52,5,5,0,0,1-3.17,1.59l3.46,5.63a.39.39,0,0,1,0,.18.23.23,0,0,1-.11.2.41.41,0,0,1-.24.08.25.25,0,0,1-.23-.18l-3.6-5.89h-5.13V49.4a.31.31,0,0,1-.3.3.3.3,0,0,1-.3-.3h0Zm10.25-4.66a4.35,4.35,0,0,0-.34-1.71,4.22,4.22,0,0,0-4-2.65h-5.18L109,43a4.29,4.29,0,0,0,4.19-4.32Z" transform="translate(-102.89 -33.57)"/><path class="cls-1" d="M119.42,41.73a7.8,7.8,0,0,1,.29-2.15,8.62,8.62,0,0,1,.81-2A7.85,7.85,0,0,1,121.8,36a8.14,8.14,0,0,1,3.58-2.1,8,8,0,0,1,2.17-.3,7.69,7.69,0,0,1,3.17.65,8.28,8.28,0,0,1,4.35,4.34,8,8,0,0,1,.35,5.34,8.33,8.33,0,0,1-2.1,3.59,8.5,8.5,0,0,1-1.66,1.27,8.08,8.08,0,0,1-1.94.82,8.4,8.4,0,0,1-4.34,0,8.08,8.08,0,0,1-1.94-.82,8.13,8.13,0,0,1-3.74-4.87A7.91,7.91,0,0,1,119.42,41.73Zm.64,0a7.11,7.11,0,0,0,.59,2.91A7.51,7.51,0,0,0,129.53,49a7.65,7.65,0,0,0,1.79-.76A7.57,7.57,0,0,0,132.85,47,7.8,7.8,0,0,0,134,45.51a7.41,7.41,0,0,0,.76-5.76,7.58,7.58,0,0,0-1.94-3.33,8.2,8.2,0,0,0-1.52-1.17,7.49,7.49,0,0,0-1.8-.76,7.4,7.4,0,0,0-7.26,1.92,6.92,6.92,0,0,0-1.17,1.52,7.32,7.32,0,0,0-.76,1.8,7.1,7.1,0,0,0-.27,2Zm6.87,0a.61.61,0,0,0,.18.46.6.6,0,0,0,.46.19.65.65,0,0,0,.64-.65.58.58,0,0,0-.19-.46.67.67,0,0,0-.45-.18.63.63,0,0,0-.65.6v0Z" transform="translate(-102.89 -33.57)"/><path class="cls-1" d="M138.45,49.7q-.16,0-.21-.09a.33.33,0,0,1,0-.24l7-15.48a.24.24,0,0,1,.28-.16.27.27,0,0,1,.2,0,.32.32,0,0,1,.12.2l7,15.39a.32.32,0,0,1,0,.25c0,.07-.08.11-.19.11Zm.57-.61h13.07l-6.54-14.32Z" transform="translate(-102.89 -33.57)"/></svg>